<?xml version="1.0" encoding="UTF-8" standalone="no"?>
<svg width="24px" height="24px" viewBox="0 0 24 24" version="1.1" xmlns="http://www.w3.org/2000/svg" xmlns:xlink="http://www.w3.org/1999/xlink" xmlns:sketch="http://www.bohemiancoding.com/sketch/ns">
    <!-- Generator: Sketch 3.3.1 (12005) - http://www.bohemiancoding.com/sketch -->
    <title>Shape</title>
    <desc>Created with Sketch.</desc>
    <defs></defs>
    <g id="Page-1" stroke="none" stroke-width="1" fill="none" fill-rule="evenodd" sketch:type="MSPage">
        <g id="Desktop---3---Documentation" sketch:type="MSArtboardGroup" transform="translate(-1333.000000, -79.000000)" fill="#EB5424">
            <g id="©-2011-2015-+-Supported-by-+-auth0-svg" sketch:type="MSLayerGroup" transform="translate(1333.000000, 79.000000)">
                <g id="Supported-by-+-auth0-svg" sketch:type="MSShapeGroup">
                    <g id="auth0-svg">
                        <g id="Page-1">
                            <g id="auth0_logo_final_blue_RGB">
                                <g id="Group">
                                    <g id="Clipped">
                                        <path d="M18.4101391,19.4087143 L15.8154267,11.9995714 L22.6075677,7.42171429 L14.2117866,7.42171429 L11.6169202,0.0128571429 L11.6161503,0.0108571429 L20.0131633,0.0108571429 L22.6086456,7.421 L22.6087996,7.42085714 L22.6109555,7.41971429 C24.1181985,11.7185714 22.5658367,16.608 18.4101391,19.4087143 L18.4101391,19.4087143 L18.4101391,19.4087143 Z M4.82308534,19.4087143 L4.8209295,19.4101429 L11.6147644,23.9891429 L18.4101391,19.4088571 L11.6169202,14.8297143 L4.82308534,19.4087143 L4.82308534,19.4087143 Z M0.623962894,7.41985714 L0.623962894,7.41985714 C-0.962738404,11.9514286 0.879122449,16.7531429 4.82169944,19.4095714 L4.8223154,19.4072857 L7.41733581,11.9985714 L0.626734694,7.42157143 L9.02051391,7.42157143 L11.6155343,0.0127142857 L11.6161503,0.0107142857 L3.21867532,0.0107142857 L0.623962894,7.41985714 L0.623962894,7.41985714 Z" id="Shape"></path>
                                    </g>
                                </g>
                            </g>
                        </g>
                    </g>
                </g>
            </g>
        </g>
    </g>
</svg>